<svg xmlns="http://www.w3.org/2000/svg" version="1.1" xmlns:xlink="http://www.w3.org/1999/xlink" xmlns:svgjs="http://svgjs.dev/svgjs" width="2000" height="1500" viewBox="0 0 2000 1500"><rect width="2000" height="1500" fill="#000000"></rect><g transform="matrix(0.75,0,0,0.75,249.090909090909,560.0423410422785)"><svg viewBox="0 0 396 100" data-background-color="#f2f0e4" preserveAspectRatio="xMidYMid meet" height="505" width="2000" xmlns="http://www.w3.org/2000/svg" xmlns:xlink="http://www.w3.org/1999/xlink"><g id="tight-bounds" transform="matrix(1,0,0,1,0.24000000000003752,0.15383734857331888)"><svg viewBox="0 0 395.5199999999999 99.69232530285336" height="99.69232530285336" width="395.5199999999999"><g><svg viewBox="0 0 552.4512987178875 139.24745799395092" height="99.69232530285336" width="395.5199999999999"><g transform="matrix(1,0,0,1,156.93129871788753,9.648771208939266)"><svg viewBox="0 0 395.52 119.94991557607239" height="119.94991557607239" width="395.52"><g id="textblocktransform"><svg viewBox="0 0 395.52 119.94991557607239" height="119.94991557607239" width="395.52" id="textblock"><g><svg viewBox="0 0 395.52 65.38169940410505" height="65.38169940410505" width="395.52"><g transform="matrix(1,0,0,1,0,0)"><svg width="395.52" viewBox="0.95 -37 226.52 37.45" height="65.38169940410505" data-palette-color="#3d2f28"><path d="M10.75 0L1.7 0Q0.95 0 0.95-0.55L0.95-0.55Q0.95-1 1.6-1.15L1.6-1.15 2.75-1.35Q3.8-1.55 4.13-1.9 4.45-2.25 4.45-3.3L4.45-3.3 4.45-32.7Q4.45-33.75 4.13-34.1 3.8-34.45 2.75-34.65L2.75-34.65 1.6-34.85Q0.95-35 0.95-35.45L0.95-35.45Q0.95-36 1.7-36L1.7-36 10.75-36Q11.5-36 11.5-35.45L11.5-35.45Q11.5-35 10.85-34.85L10.85-34.85 9.7-34.65Q8.65-34.45 8.33-34.1 8-33.75 8-32.7L8-32.7 8-3.3Q8-2.25 8.33-1.9 8.65-1.55 9.7-1.35L9.7-1.35 10.85-1.15Q11.5-1 11.5-0.55L11.5-0.55Q11.5 0 10.75 0L10.75 0ZM22.4 0L13.95 0Q13.2 0 13.2-0.55L13.2-0.55Q13.2-1 13.85-1.15L13.85-1.15 14.45-1.25Q15.5-1.45 15.82-1.88 16.15-2.3 16.15-3.35L16.15-3.35 16.15-20.15Q16.15-21.05 15.87-21.38 15.6-21.7 14.9-21.8L14.9-21.8 13.85-21.95Q13.2-22 13.2-22.5L13.2-22.5Q13.2-22.9 14-23.05L14-23.05Q15.55-23.3 16.37-23.85 17.2-24.4 18.1-25.2L18.1-25.2Q18.55-25.65 18.85-25.65L18.85-25.65Q19.3-25.65 19.3-25.05L19.3-25.05 19.3-22.8Q19.3-22.35 19.62-22.23 19.95-22.1 20.35-22.5L20.35-22.5Q22.35-24.4 23.87-25.1 25.4-25.8 27.1-25.8L27.1-25.8Q29.35-25.8 30.7-24.23 32.05-22.65 32.05-19.6L32.05-19.6 32.05-3.35Q32.05-2.3 32.37-1.88 32.7-1.45 33.75-1.3L33.75-1.3 34.85-1.15Q35.4-1.05 35.4-0.55L35.4-0.55Q35.4 0 34.8 0L34.8 0 26.4 0Q25.7 0 25.7-0.55L25.7-0.55Q25.7-1.05 26.25-1.15L26.25-1.15 26.95-1.25Q28-1.4 28.32-1.85 28.65-2.3 28.65-3.35L28.65-3.35 28.65-19.05Q28.65-21.5 27.75-22.5 26.85-23.5 25.2-23.5L25.2-23.5Q23.6-23.5 22.32-22.58 21.05-21.65 20.3-20.13 19.55-18.6 19.55-16.75L19.55-16.75 19.55-3.35Q19.55-2.3 19.87-1.85 20.2-1.4 21.25-1.3L21.25-1.3 22.6-1.15Q23.15-1.05 23.15-0.6L23.15-0.6Q23.15 0 22.4 0L22.4 0ZM45 0.45L45 0.45Q42.8 0.45 41.07-1.07 39.35-2.6 38.4-5.33 37.45-8.05 37.45-11.65L37.45-11.65Q37.45-15.85 38.75-19.03 40.05-22.2 42.35-24 44.65-25.8 47.55-25.8L47.55-25.8Q48.25-25.8 48.95-25.68 49.65-25.55 50.3-25.25L50.3-25.25Q51.1-24.85 51.1-25.6L51.1-25.6 51.1-32Q51.1-32.9 50.82-33.25 50.55-33.6 49.85-33.65L49.85-33.65 48.55-33.8Q48-33.9 48-34.4L48-34.4Q48-34.9 48.55-35L48.55-35Q50.15-35.3 51.12-35.7 52.1-36.1 52.75-36.5L52.75-36.5Q53.55-37 53.95-37L53.95-37Q54.5-37 54.5-36.2L54.5-36.2 54.5-4.75Q54.5-2.65 55.55-2.65L55.55-2.65Q56.2-2.65 56.75-3.53 57.3-4.4 57.3-6.5L57.3-6.5Q57.3-7.3 57.95-7.3L57.95-7.3Q58.55-7.3 58.55-6.45L58.55-6.45Q58.55-2.8 57.3-1.18 56.05 0.45 54.45 0.45L54.45 0.45Q53 0.45 52.25-0.53 51.5-1.5 51.25-2.85L51.25-2.85Q51.2-3.25 50.9-3.28 50.6-3.3 50.35-2.9L50.35-2.9Q48.95-0.95 47.8-0.25 46.65 0.45 45 0.45ZM46.1-1.85L46.1-1.85Q47.4-1.85 48.52-2.73 49.65-3.6 50.37-5.1 51.1-6.6 51.1-8.45L51.1-8.45 51.1-19.7Q51.1-21.95 50.07-23.25 49.05-24.55 47.4-24.55L47.4-24.55Q44.6-24.55 42.87-21.28 41.15-18 41.15-12.35L41.15-12.35Q41.15-7.2 42.47-4.53 43.8-1.85 46.1-1.85ZM67.34 0.45L67.34 0.45Q66.09 0.45 64.94-0.1 63.79-0.65 63.04-1.85 62.29-3.05 62.29-5.05L62.29-5.05 62.29-22.45Q62.29-23.35 62.02-23.7 61.74-24.05 61.04-24.1L61.04-24.1 60.19-24.2Q59.34-24.3 59.34-24.85L59.34-24.85Q59.34-25.5 60.29-25.5L60.29-25.5 64.94-25.5Q65.69-25.5 65.69-24.75L65.69-24.75 65.69-6.1Q65.69-3.8 66.57-2.83 67.44-1.85 68.99-1.85L68.99-1.85Q70.54-1.85 71.74-2.73 72.94-3.6 73.67-5.08 74.39-6.55 74.39-8.3L74.39-8.3 74.39-22.45Q74.39-23.35 74.12-23.7 73.84-24.05 73.14-24.1L73.14-24.1 72.29-24.2Q71.44-24.3 71.44-24.85L71.44-24.85Q71.44-25.5 72.39-25.5L72.39-25.5 77.04-25.5Q77.79-25.5 77.79-24.75L77.79-24.75 77.79-5.35Q77.79-4.45 78.07-4.13 78.34-3.8 79.04-3.7L79.04-3.7 80.09-3.55Q80.74-3.5 80.74-3.05L80.74-3.05Q80.74-2.6 79.94-2.45L79.94-2.45Q78.39-2.25 77.47-1.65 76.54-1.05 75.84-0.2L75.84-0.2Q75.39 0.25 75.09 0.25L75.09 0.25Q74.64 0.25 74.64-0.35L74.64-0.35 74.64-2.65Q74.64-3.05 74.37-3.13 74.09-3.2 73.79-2.9L73.79-2.9Q71.94-1.05 70.52-0.3 69.09 0.45 67.34 0.45ZM88.04 0.45L88.04 0.45Q86.89 0.45 85.59 0.18 84.29-0.1 83.49-0.5L83.49-0.5Q83.04-0.75 83.04-1.35L83.04-1.35 82.89-6.95Q82.89-7.8 83.54-7.8L83.54-7.8Q84.09-7.8 84.29-7L84.29-7Q85.14-3.45 86.37-2.15 87.59-0.85 89.34-0.85L89.34-0.85Q90.79-0.85 91.74-1.98 92.69-3.1 92.69-5.1L92.69-5.1Q92.69-7.1 91.59-8.65 90.49-10.2 87.89-12.05L87.89-12.05Q85.29-13.8 84.09-15.58 82.89-17.35 82.89-19.45L82.89-19.45Q82.89-22.3 84.89-24.05 86.89-25.8 90.19-25.8L90.19-25.8Q91.19-25.8 92.14-25.58 93.09-25.35 93.84-24.85L93.84-24.85Q94.29-24.55 94.29-24.05L94.29-24.05 94.39-18.55Q94.39-17.8 93.79-17.8L93.79-17.8Q93.44-17.8 93.29-18.03 93.14-18.25 93.04-18.6L93.04-18.6Q92.04-21.85 91.04-23.13 90.04-24.4 88.59-24.4L88.59-24.4Q87.29-24.4 86.44-23.5 85.59-22.6 85.59-21.25L85.59-21.25Q85.59-19.5 86.64-18.2 87.69-16.9 90.44-15L90.44-15Q92.94-13.2 94.22-11.13 95.49-9.05 95.49-6.6L95.49-6.6Q95.49-3.4 93.44-1.48 91.39 0.45 88.04 0.45ZM104.24 0.45L104.24 0.45Q102.49 0.45 101.36-0.78 100.24-2 100.24-4.8L100.24-4.8 100.24-23.5Q100.24-24.1 99.64-24.1L99.64-24.1 98.19-24.1Q97.39-24.1 97.39-24.7L97.39-24.7Q97.39-25.1 97.84-25.4L97.84-25.4Q99.49-26.55 100.49-27.88 101.49-29.2 102.24-31.5L102.24-31.5Q102.59-32.55 103.09-32.55L103.09-32.55Q103.64-32.55 103.64-31.75L103.64-31.75 103.64-26.2Q103.64-25.5 104.34-25.5L104.34-25.5 107.59-25.5Q108.39-25.5 108.39-24.8L108.39-24.8Q108.39-24.1 107.59-24.1L107.59-24.1 104.34-24.1Q103.64-24.1 103.64-23.4L103.64-23.4 103.64-4.75Q103.64-3.65 103.99-3.03 104.34-2.4 105.29-2.4L105.29-2.4Q106.34-2.4 107.01-3.45 107.69-4.5 107.89-6.85L107.89-6.85Q107.99-7.55 108.54-7.55L108.54-7.55Q109.14-7.55 109.14-6.8L109.14-6.8Q108.99-2.95 107.56-1.25 106.14 0.45 104.24 0.45ZM117.54-22.3L117.54-22.3Q119.59-25.8 122.49-25.8L122.49-25.8Q124.14-25.8 124.94-24.83 125.74-23.85 125.74-22.65L125.74-22.65Q125.74-21.7 125.26-21.1 124.79-20.5 123.79-20.5L123.79-20.5Q122.99-20.5 122.61-20.88 122.24-21.25 122.01-21.75 121.79-22.25 121.49-22.63 121.19-23 120.49-23L120.49-23Q119.59-23 118.79-21.93 117.99-20.85 117.46-19.05 116.94-17.25 116.94-14.95L116.94-14.95 116.94-3.35Q116.94-2.3 117.26-1.85 117.59-1.4 118.64-1.3L118.64-1.3 119.99-1.15Q120.54-1.05 120.54-0.6L120.54-0.6Q120.54 0 119.79 0L119.79 0 111.34 0Q110.59 0 110.59-0.55L110.59-0.55Q110.59-1 111.24-1.15L111.24-1.15 111.84-1.25Q112.89-1.45 113.21-1.88 113.54-2.3 113.54-3.35L113.54-3.35 113.54-20.15Q113.54-21.05 113.26-21.38 112.99-21.7 112.29-21.8L112.29-21.8 111.24-21.95Q110.59-22 110.59-22.5L110.59-22.5Q110.59-22.9 111.39-23.05L111.39-23.05Q112.94-23.3 113.76-23.85 114.59-24.4 115.49-25.2L115.49-25.2Q115.94-25.65 116.24-25.65L116.24-25.65Q116.69-25.65 116.69-25.05L116.69-25.05 116.69-22.35Q116.69-22 116.99-21.93 117.29-21.85 117.54-22.3ZM135.88 0.45L135.88 0.45Q133.33 0.45 131.31-1.28 129.28-3 128.08-6 126.88-9 126.88-12.7L126.88-12.7Q126.88-16.4 128.08-19.35 129.28-22.3 131.33-24.05 133.38-25.8 135.88-25.8L135.88-25.8Q138.43-25.8 140.46-24.05 142.48-22.3 143.68-19.35 144.88-16.4 144.88-12.7L144.88-12.7Q144.88-9 143.71-6 142.53-3 140.48-1.28 138.43 0.45 135.88 0.45ZM135.88-0.8L135.88-0.8Q141.08-0.8 141.08-12.7L141.08-12.7Q141.08-24.55 135.88-24.55L135.88-24.55Q130.68-24.55 130.68-12.7L130.68-12.7Q130.68-0.8 135.88-0.8ZM161.88-0.5L161.88-0.5Q161.68-0.5 161.43-0.65 161.18-0.8 161.08-1.3L161.08-1.3 153.53-31.95Q153.48-32.3 153.23-32.27 152.98-32.25 152.98-31.9L152.98-31.9 151.98-4.3Q151.93-2.9 152.43-2.18 152.93-1.45 154.18-1.25L154.18-1.25 154.83-1.15Q155.48-1.1 155.48-0.55L155.48-0.55Q155.48 0 154.73 0L154.73 0 147.58 0Q146.83 0 146.83-0.55L146.83-0.55Q146.83-1.1 147.48-1.15L147.48-1.15 148.13-1.25Q149.43-1.45 149.91-2.18 150.38-2.9 150.43-4.3L150.43-4.3 151.43-32.7Q151.48-33.75 151.13-34.1 150.78-34.45 149.63-34.65L149.63-34.65 148.48-34.85Q147.83-35 147.83-35.45L147.83-35.45Q147.83-36 148.58-36L148.58-36 154.58-36Q156.13-36 156.48-34.5L156.48-34.5 162.53-9.55Q162.63-9.2 162.86-9.2 163.08-9.2 163.13-9.55L163.13-9.55 169.43-34.75Q169.73-36 171.03-36L171.03-36 176.93-36Q177.68-36 177.68-35.45L177.68-35.45Q177.68-35 177.03-34.85L177.03-34.85 175.88-34.65Q174.83-34.45 174.48-34.1 174.13-33.75 174.18-32.7L174.18-32.7 175.18-3.3Q175.23-2.25 175.53-1.9 175.83-1.55 176.88-1.35L176.88-1.35 178.03-1.15Q178.68-1 178.68-0.55L178.68-0.55Q178.68 0 177.93 0L177.93 0 168.88 0Q168.13 0 168.13-0.55L168.13-0.55Q168.13-1 168.78-1.15L168.78-1.15 169.93-1.35Q170.98-1.55 171.33-1.9 171.68-2.25 171.63-3.3L171.63-3.3 170.78-31.9Q170.78-32.25 170.56-32.27 170.33-32.3 170.23-32L170.23-32 162.63-1.3Q162.53-0.8 162.31-0.65 162.08-0.5 161.88-0.5ZM185.38 0.45L185.38 0.45Q183.28 0.45 181.93-0.88 180.58-2.2 180.58-4.4L180.58-4.4Q180.58-6.55 181.93-8.47 183.28-10.4 185.63-11.95 187.98-13.5 190.98-14.45L190.98-14.45Q191.63-14.65 191.63-15.3L191.63-15.3 191.63-19.85Q191.63-22.25 190.88-23.28 190.13-24.3 188.83-24.3L188.83-24.3Q187.58-24.3 186.55-23.18 185.53-22.05 185.08-19.4L185.08-19.4Q184.83-17.8 184-17.07 183.18-16.35 182.33-16.35L182.33-16.35Q180.93-16.35 180.93-17.75L180.93-17.75Q180.93-19.2 181.75-20.63 182.58-22.05 183.93-23.23 185.28-24.4 186.88-25.1 188.48-25.8 190.08-25.8L190.08-25.8Q195.03-25.8 195.03-20.05L195.03-20.05 195.03-4.75Q195.03-2.65 196.08-2.65L196.08-2.65Q196.73-2.65 197.28-3.53 197.83-4.4 197.83-6.5L197.83-6.5Q197.83-7.3 198.48-7.3L198.48-7.3Q199.08-7.3 199.08-6.45L199.08-6.45Q199.08-2.8 197.8-1.18 196.53 0.45 194.93 0.45L194.93 0.45Q193.73 0.45 193.03-0.53 192.33-1.5 192.08-2.85L192.08-2.85Q192.03-3.35 191.65-3.38 191.28-3.4 190.93-2.9L190.93-2.9Q189.73-1.25 188.48-0.4 187.23 0.45 185.38 0.45ZM186.73-1.85L186.73-1.85Q188.03-1.85 189.13-2.78 190.23-3.7 190.93-5.25 191.63-6.8 191.63-8.75L191.63-8.75 191.63-12.4Q191.63-13.35 190.58-12.95L190.58-12.95Q187.53-11.85 185.85-9.93 184.18-8 184.18-5.3L184.18-5.3Q184.18-1.85 186.73-1.85ZM207.03-22.3L207.03-22.3Q209.08-25.8 211.98-25.8L211.98-25.8Q213.63-25.8 214.43-24.83 215.23-23.85 215.23-22.65L215.23-22.65Q215.23-21.7 214.75-21.1 214.28-20.5 213.28-20.5L213.28-20.5Q212.48-20.5 212.1-20.88 211.73-21.25 211.5-21.75 211.28-22.25 210.98-22.63 210.68-23 209.98-23L209.98-23Q209.08-23 208.28-21.93 207.48-20.85 206.95-19.05 206.43-17.25 206.43-14.95L206.43-14.95 206.43-3.35Q206.43-2.3 206.75-1.85 207.08-1.4 208.13-1.3L208.13-1.3 209.48-1.15Q210.03-1.05 210.03-0.6L210.03-0.6Q210.03 0 209.28 0L209.28 0 200.83 0Q200.08 0 200.08-0.55L200.08-0.55Q200.08-1 200.73-1.15L200.73-1.15 201.33-1.25Q202.38-1.45 202.7-1.88 203.03-2.3 203.03-3.35L203.03-3.35 203.03-20.15Q203.03-21.05 202.75-21.38 202.48-21.7 201.78-21.8L201.78-21.8 200.73-21.95Q200.08-22 200.08-22.5L200.08-22.5Q200.08-22.9 200.88-23.05L200.88-23.05Q202.43-23.3 203.25-23.85 204.08-24.4 204.98-25.2L204.98-25.2Q205.43-25.65 205.73-25.65L205.73-25.65Q206.18-25.65 206.18-25.05L206.18-25.05 206.18-22.35Q206.18-22 206.48-21.93 206.78-21.85 207.03-22.3ZM222.57 0.45L222.57 0.45Q220.82 0.45 219.7-0.78 218.57-2 218.57-4.8L218.57-4.8 218.57-23.5Q218.57-24.1 217.97-24.1L217.97-24.1 216.52-24.1Q215.72-24.1 215.72-24.7L215.72-24.7Q215.72-25.1 216.17-25.4L216.17-25.4Q217.82-26.55 218.82-27.88 219.82-29.2 220.57-31.5L220.57-31.5Q220.92-32.55 221.42-32.55L221.42-32.55Q221.97-32.55 221.97-31.75L221.97-31.75 221.97-26.2Q221.97-25.5 222.67-25.5L222.67-25.5 225.92-25.5Q226.72-25.5 226.72-24.8L226.72-24.8Q226.72-24.1 225.92-24.1L225.92-24.1 222.67-24.1Q221.97-24.1 221.97-23.4L221.97-23.4 221.97-4.75Q221.97-3.65 222.32-3.03 222.67-2.4 223.62-2.4L223.62-2.4Q224.67-2.4 225.35-3.45 226.02-4.5 226.22-6.85L226.22-6.85Q226.32-7.55 226.87-7.55L226.87-7.55Q227.47-7.55 227.47-6.8L227.47-6.8Q227.32-2.95 225.9-1.25 224.47 0.45 222.57 0.45Z" opacity="1" transform="matrix(1,0,0,1,0,0)" fill="#ffffff" class="wordmark-text-0" data-fill-palette-color="primary" id="text-0"></path></svg></g></svg></g><g transform="matrix(1,0,0,1,41.52959999999999,80.81674947262856)"><svg viewBox="0 0 312.4608 39.133166103443834" height="39.133166103443834" width="312.4608"><g transform="matrix(1,0,0,1,0,0)"><svg width="312.4608" viewBox="3 -37.7 387.61 48.550000000000004" height="39.133166103443834" data-palette-color="#3d2f28"><path d="M3-34.55L9.35-34.55 9.35 0 3 0 3-34.55ZM27.55-27.15Q30.4-27.15 32.05-25.1 33.7-23.05 33.7-19.6L33.7-19.6 33.7 0 27.55 0 27.55-18.9Q27.55-20.8 27.02-21.63 26.5-22.45 25.5-22.45L25.5-22.45Q23.4-22.45 21.35-18.5L21.35-18.5 21.35 0 15.2 0 15.2-26.45 20.55-26.45 21-23Q22.35-25.1 23.87-26.13 25.4-27.15 27.55-27.15L27.55-27.15ZM52.2-37.7L58.35-37.05 58.35 0 52.9 0 52.59-3.05Q50.25 0.75 46.55 0.75L46.55 0.75Q42.45 0.75 40.27-2.93 38.1-6.6 38.1-13.2L38.1-13.2Q38.1-17.4 39.22-20.58 40.35-23.75 42.35-25.45 44.35-27.15 46.95-27.15L46.95-27.15Q50.15-27.15 52.2-24.5L52.2-24.5 52.2-37.7ZM48.3-3.9Q49.45-3.9 50.37-4.7 51.3-5.5 52.2-7L52.2-7 52.2-19.85Q50.6-22.55 48.55-22.55L48.55-22.55Q44.5-22.55 44.5-13.25L44.5-13.25Q44.5-8.2 45.5-6.05 46.5-3.9 48.3-3.9L48.3-3.9ZM82.19-26.45L82.19 0 76.84 0 76.54-3.35Q75.29-1.3 73.74-0.28 72.19 0.75 70.14 0.75L70.14 0.75Q67.24 0.75 65.57-1.3 63.89-3.35 63.89-6.65L63.89-6.65 63.89-26.45 70.04-26.45 70.04-7Q70.04-3.9 72.14-3.9L72.14-3.9Q73.34-3.9 74.29-4.83 75.24-5.75 76.04-7.45L76.04-7.45 76.04-26.45 82.19-26.45ZM95.24-27.15Q99.94-27.15 103.19-24.05L103.19-24.05 100.84-20.7Q99.44-21.7 98.19-22.2 96.94-22.7 95.64-22.7L95.64-22.7Q94.19-22.7 93.37-21.93 92.54-21.15 92.54-19.8L92.54-19.8Q92.54-18.45 93.47-17.63 94.39-16.8 97.19-15.7L97.19-15.7Q100.64-14.35 102.29-12.5 103.94-10.65 103.94-7.55L103.94-7.55Q103.94-3.7 101.24-1.48 98.54 0.75 94.39 0.75L94.39 0.75Q91.69 0.75 89.42-0.23 87.14-1.2 85.44-2.95L85.44-2.95 88.44-6.25Q91.24-3.8 94.14-3.8L94.14-3.8Q95.79-3.8 96.74-4.67 97.69-5.55 97.69-7.1L97.69-7.1Q97.69-8.25 97.29-8.97 96.89-9.7 95.89-10.33 94.89-10.95 92.89-11.7L92.89-11.7Q89.44-13.05 87.97-14.85 86.49-16.65 86.49-19.45L86.49-19.45Q86.49-22.8 88.87-24.98 91.24-27.15 95.24-27.15L95.24-27.15ZM118.94-5L121.09-1.2Q118.64 0.75 115.34 0.75L115.34 0.75Q111.89 0.75 110.09-1.23 108.29-3.2 108.29-6.6L108.29-6.6 108.29-22 105.19-22 105.19-26.45 108.29-26.45 108.29-32.3 114.44-33.05 114.44-26.45 119.44-26.45 118.84-22 114.44-22 114.44-6.6Q114.44-4.2 116.49-4.2L116.49-4.2Q117.14-4.2 117.64-4.38 118.14-4.55 118.94-5L118.94-5ZM135.29-27.1Q136.44-27.1 137.34-26.75L137.34-26.75 136.34-20.85Q135.34-21.1 134.49-21.1L134.49-21.1Q132.59-21.1 131.49-19.45 130.39-17.8 129.79-14.55L129.79-14.55 129.79 0 123.64 0 123.64-26.45 128.99-26.45 129.44-21.85Q131.29-27.1 135.29-27.1L135.29-27.1ZM158.83-26.45L151.83 0.1Q150.53 4.9 147.63 7.65 144.73 10.4 139.88 10.85L139.88 10.85 139.18 6.5Q142.33 5.85 143.91 4.42 145.48 3 146.38 0L146.38 0 144.08 0 137.38-26.45 143.63-26.45 148.03-4.1 152.73-26.45 158.83-26.45ZM171.73-34.55L188.88-34.55 188.23-29.8 178.08-29.8 178.08-19.9 186.93-19.9 186.93-15.2 178.08-15.2 178.08-4.8 188.88-4.8 188.88 0 171.73 0 171.73-34.55ZM216.88-27.15Q219.53-27.15 221.13-25.1 222.73-23.05 222.73-19.6L222.73-19.6 222.73 0 216.68 0 216.68-18.95Q216.68-20.85 216.18-21.68 215.68-22.5 214.73-22.5L214.73-22.5Q212.78-22.5 210.98-18.8L210.98-18.8 210.98 0 204.98 0 204.98-18.95Q204.98-22.5 203.08-22.5L203.08-22.5Q201.03-22.5 199.28-18.8L199.28-18.8 199.28 0 193.23 0 193.23-26.45 198.58-26.45 198.98-23.05Q201.58-27.15 205.23-27.15L205.23-27.15Q207.08-27.15 208.43-26 209.78-24.85 210.48-22.75L210.48-22.75Q213.13-27.15 216.88-27.15L216.88-27.15ZM240.42-27.15Q244.32-27.15 246.32-23.58 248.32-20 248.32-13.3L248.32-13.3Q248.32-6.8 246.05-3.03 243.77 0.75 239.72 0.75L239.72 0.75Q236.52 0.75 234.37-2.1L234.37-2.1 234.37 10.15 228.22 10.85 228.22-26.45 233.67-26.45 233.92-23.25Q235.22-25.25 236.82-26.2 238.42-27.15 240.42-27.15L240.42-27.15ZM238.07-3.95Q239.97-3.95 240.97-6.13 241.97-8.3 241.97-13.25L241.97-13.25Q241.97-18.45 241.12-20.5 240.27-22.55 238.47-22.55L238.47-22.55Q236.17-22.55 234.37-19.25L234.37-19.25 234.37-6.45Q235.97-3.95 238.07-3.95L238.07-3.95ZM262.32-27.15Q267.32-27.15 270.1-23.65 272.87-20.15 272.87-13.25L272.87-13.25Q272.87-6.65 270.07-2.95 267.27 0.75 262.32 0.75L262.32 0.75Q257.37 0.75 254.57-2.88 251.77-6.5 251.77-13.25L251.77-13.25Q251.77-19.95 254.57-23.55 257.37-27.15 262.32-27.15L262.32-27.15ZM262.32-22.5Q260.17-22.5 259.17-20.38 258.17-18.25 258.17-13.25L258.17-13.25Q258.17-8.2 259.17-6.08 260.17-3.95 262.32-3.95L262.32-3.95Q264.47-3.95 265.47-6.08 266.47-8.2 266.47-13.25L266.47-13.25Q266.47-18.3 265.47-20.4 264.47-22.5 262.32-22.5L262.32-22.5ZM299.47-26.45L305.17-26.45 300.62 0 293.12 0 290.17-20.85 287.27 0 279.82 0 275.17-26.45 281.12-26.45 283.82-4.6 287.17-26.45 293.42-26.45 296.62-4.6 299.47-26.45ZM327.52-13.85Q327.52-13.4 327.37-11.3L327.37-11.3 313.72-11.3Q313.92-7.2 315.14-5.58 316.37-3.95 318.62-3.95L318.62-3.95Q320.17-3.95 321.42-4.48 322.67-5 324.12-6.15L324.12-6.15 326.67-2.65Q323.17 0.75 318.27 0.75L318.27 0.75Q313.07 0.75 310.29-2.85 307.52-6.45 307.52-13L307.52-13Q307.52-19.55 310.17-23.35 312.82-27.15 317.67-27.15L317.67-27.15Q322.32-27.15 324.92-23.78 327.52-20.4 327.52-13.85L327.52-13.85ZM321.52-15.3L321.52-15.65Q321.52-19.4 320.62-21.13 319.72-22.85 317.72-22.85L317.72-22.85Q315.87-22.85 314.89-21.18 313.92-19.5 313.72-15.3L313.72-15.3 321.52-15.3ZM343.46-27.1Q344.61-27.1 345.51-26.75L345.51-26.75 344.51-20.85Q343.51-21.1 342.66-21.1L342.66-21.1Q340.76-21.1 339.66-19.45 338.56-17.8 337.96-14.55L337.96-14.55 337.96 0 331.81 0 331.81-26.45 337.16-26.45 337.61-21.85Q339.46-27.1 343.46-27.1L343.46-27.1ZM367.21-13.85Q367.21-13.4 367.06-11.3L367.06-11.3 353.41-11.3Q353.61-7.2 354.84-5.58 356.06-3.95 358.31-3.95L358.31-3.95Q359.86-3.95 361.11-4.48 362.36-5 363.81-6.15L363.81-6.15 366.36-2.65Q362.86 0.75 357.96 0.75L357.96 0.75Q352.76 0.75 349.99-2.85 347.21-6.45 347.21-13L347.21-13Q347.21-19.55 349.86-23.35 352.51-27.15 357.36-27.15L357.36-27.15Q362.01-27.15 364.61-23.78 367.21-20.4 367.21-13.85L367.21-13.85ZM361.21-15.3L361.21-15.65Q361.21-19.4 360.31-21.13 359.41-22.85 357.41-22.85L357.41-22.85Q355.56-22.85 354.59-21.18 353.61-19.5 353.41-15.3L353.41-15.3 361.21-15.3ZM384.46-37.7L390.61-37.05 390.61 0 385.16 0 384.86-3.05Q382.51 0.75 378.81 0.75L378.81 0.75Q374.71 0.75 372.53-2.93 370.36-6.6 370.36-13.2L370.36-13.2Q370.36-17.4 371.48-20.58 372.61-23.75 374.61-25.45 376.61-27.15 379.21-27.15L379.21-27.15Q382.41-27.15 384.46-24.5L384.46-24.5 384.46-37.7ZM380.56-3.9Q381.71-3.9 382.63-4.7 383.56-5.5 384.46-7L384.46-7 384.46-19.85Q382.86-22.55 380.81-22.55L380.81-22.55Q376.76-22.55 376.76-13.25L376.76-13.25Q376.76-8.2 377.76-6.05 378.76-3.9 380.56-3.9L380.56-3.9Z" opacity="1" transform="matrix(1,0,0,1,0,0)" fill="#ffffff" class="slogan-text-1" data-fill-palette-color="secondary" id="text-1"></path></svg></g></svg></g></svg></g></svg></g><g><svg viewBox="0 0 141.49624864936402 139.24745799395092" height="139.24745799395092" width="141.49624864936402"><g><svg xmlns="http://www.w3.org/2000/svg" xml:space="preserve" viewBox="4.935202354706927 5.695449555959597 89.97753934509005 88.54753217806108" x="0" y="0" height="139.24745799395092" width="141.49624864936402" class="icon-icon-0" data-fill-palette-color="accent" id="icon-0"><path d="M27.5 64.3c-1.9-2.9-2.9-6.2-3.6-9.5-0.2-1.2-0.5-2.3-0.6-3.5s-0.7-1.8-1.9-2.1c-1.7-0.5-3.3-1.2-5-1.7-4.4-1.4-7.2-4.8-9-8.7C5.6 35 4.5 31 5.1 26.5c0.6-4.7 2.7-8.3 6-11.3 5.2-4.7 11.4-6.4 18.2-5 5.6 1.1 9.9 4.4 12.9 9.2 0.9 1.4 1.8 2 3.4 1.9 1.7-0.1 3.3 0 5 0.1 3.1 0.1 6 1 8.4 3 3.2 2.6 5.9 5.7 7.7 9.3 1.7 3.3 3.9 6.2 6.3 8.9 0.6 0.6 1.1 0.8 1.9 0.6 0.5-0.1 1-0.2 1.4-0.4 6.3-3 11.5-7.3 14-14 0.8-2.2 1.3-4.6 0.6-7-0.2-0.7-0.3-1.4-0.5-2.1-0.6-3.6-2.6-6.2-5.6-7.9-4-2.3-8.5-2.9-13-1.8-2 0.5-3.8 1.8-5.7 2.8-0.7-1.1-0.7-2 0.4-2.7C69.1 8.4 71.3 7 73.7 6c1.5-0.5 3.3-0.3 5 0 5 0.9 9.3 3.3 12.4 7.5 1.2 1.6 2.1 3.6 2.7 5.5 0.7 2.2 1.2 4.5 1.1 6.8-0.1 2.5-0.2 5.1-2 7.2-0.2 0.2-0.4 0.5-0.5 0.8-1.3 3.5-4.1 5.8-6.6 8.4-0.7 0.7-1.7 1.1-2.6 1.6-1.9 1-3.7 2-5.7 3.1 0.3 0.7 0.4 1.1 0.7 1.5 3.2 4.5 6.5 9.1 9.7 13.6 1.5 2.1 2.8 4.2 4.1 6.4 1.7 3 2.2 6.3 1.5 9.7-0.3 1.4-0.6 2.8-0.8 4.2-0.5 3.3-2.5 5.4-5.1 7.2-3.2 2.2-6.7 3.3-10.5 3.7l-7.8 0.9c-3.4 0.4-6.7 0-9.7-1.7-1.2-0.7-2.3-0.7-3.7-0.3-2.8 0.7-5.5 1.6-8.4 1.9-2.7 0.3-5.6-0.1-8.3-0.1-5.5-0.1-10.5-1.8-15.4-4-5.5-2.4-8.3-7.1-9.1-12.9-0.3-2.1-0.2-4.3-0.1-6.5 0.1-2.4 1.4-4.2 3.7-5.1 2-0.8 4-1.1 6.1-0.9 0.9 0.1 1.9 0.2 2.8 0.3 0.1-0.2 0.2-0.4 0.3-0.5m37.7 22.9c1.2 0.2 1.9 0.5 2.6 0.4 2.1-0.1 4.1-0.4 6.2-0.6 3.8-0.3 7.3-1.6 10.4-3.8 1.3-0.9 2.3-2 2.8-3.5 0.4-1.2 0.7-2.5 1.1-3.7 1.5-4.5 0.1-8.3-2.8-11.7-4.2-4.9-8.5-9.7-12.7-14.6-1.1-1.3-2.3-2-4.1-2.1-1.6-0.1-3.3-0.4-4.9-1-2-0.7-4-1.6-6-2.4-2.6-1-4.9-2.4-6.6-4.6q-0.6-0.9-1.5-1.5c-2.7-2.1-4.7-4.8-6-8-0.5-1.1-1.1-1.6-2.4-1.3-0.9 0.3-1.9 0.3-2.8 0.6-0.7 0.3-1.5 0.7-1.9 1.3-1.8 2.9-3.5 5.9-5.1 8.9-0.7 1.3-1.1 2.8-0.7 4.1 2.6 0.4 5 0.5 7.2 1.1 5.3 1.4 10.1 3.9 14.7 6.9 7 4.6 12.2 10.8 15.2 18.6 2.3 5.8 2.5 11.5-2.7 16.9M35.1 48.3c0 0.1-0.1 0.2-0.1 0.3-0.6 0-1.3 0.1-1.9 0.1-0.2 0-0.5 0.1-0.7 0.1-1.5 0.4-2 0.9-1.5 2.4 0.6 2 1 4.1 2.1 5.8 2 3.2 3.8 6.5 5 10 0.4 1.2 1.1 2 2.1 2.8 2.9 2.1 5.8 4.2 8.4 6.6 2.4 2.2 4.5 4.7 6.7 7.1 1.7 1.8 2.2 2 4.3 0.8 2.3-1.3 4.2-3.2 5.5-5.5 0.8-1.5 1.4-3 1-4.8-1.2-5.1-3.9-9.5-7.7-13-5.1-4.7-11.4-7.9-17.6-11-1.7-0.9-3.7-1.2-5.6-1.7m4.1-26.8c-0.4-2.3-2.3-3.4-3.8-4.7-3.7-3.3-7.9-5.1-12.9-4.4-4.5 0.7-8.2 2.9-11.1 6.5-0.6 0.7-1.2 1.5-1.5 2.4-1.5 4.6-1 9.1 0.8 13.5 2 4.7 5.9 7.1 10.3 9 0.6 0.3 1.3 0.2 1.9 0.2 0.2-0.5 0.4-0.7 0.4-0.9 0.8-4.9 3.6-9 5.3-13.5 0.2-0.6 0.6-1.1 1-1.6 2.5-2.7 5.2-5.1 8.9-6.1 0.3 0 0.5-0.2 0.7-0.4m0.4 52.4c-0.4 1.5-0.8 2.7-1.2 3.9-0.6 2.1-1.9 3.9-3.4 5.4-1.2 1.1-2.8 1.4-3.4 0.6-0.5-0.7-0.1-1.6 1.3-2.7 1.7-1.4 2.1-2.7 1.3-4.8-0.3-0.7-0.8-1.4-1-2.2-0.8-2.9-2.9-3.9-5.6-4.4-4-0.6-7.8 1.2-9.5 4.9-0.4 0.8-0.5 2.1-0.1 3 1.6 3.5 3.9 6.5 7.6 7.9 7.3 2.9 14.8 4.2 22.7 2.2 1.5-0.4 3-0.8 4.8-1.4-3.6-5.4-8.4-8.9-13.5-12.4m7.5-45.2c0.4 2.2 2.5 5.6 4.3 7.6 4.1 4.6 9.7 6.3 15.1 8.3 0.3 0.1 0.8-0.2 1.5-0.3-2.1-5.2-4.9-9.6-9.5-12.8-3.4-2.5-7.2-3.4-11.4-2.8" fill="#ffffff" data-fill-palette-color="accent"></path></svg></g></svg></g></svg></g><defs></defs></svg><rect width="395.5199999999999" height="99.69232530285336" fill="none" stroke="none" visibility="hidden"></rect></g></svg></g></svg>